<?xml version="1.0" encoding="UTF-8" standalone="no"?>
<!DOCTYPE svg PUBLIC "-//W3C//DTD SVG 1.1//EN"
 "http://www.w3.org/Graphics/SVG/1.1/DTD/svg11.dtd">
<!-- Generated by graphviz version 2.43.0 (0)
 -->
<!-- Title: %3 Pages: 1 -->
<svg width="621pt" height="479pt"
 viewBox="0.00 0.00 620.71 479.00" xmlns="http://www.w3.org/2000/svg" xmlns:xlink="http://www.w3.org/1999/xlink">
<g id="graph0" class="graph" transform="scale(1 1) rotate(0) translate(4 475)">
<title>%3</title>
<polygon fill="#333333" stroke="transparent" points="-4,4 -4,-475 616.71,-475 616.71,4 -4,4"/>
<text text-anchor="middle" x="306.36" y="-9.2" font-family="Times,serif" font-size="16.00" fill="white">Network Map</text>
<!-- R3 -->
<g id="node1" class="node">
<title>R3</title>
<polygon fill="#006699" stroke="#006699" points="333.21,-99 256.21,-99 256.21,-26 333.21,-26 333.21,-99"/>
<text text-anchor="middle" x="294.71" y="-58.8" font-family="Helvetica,sans-Serif" font-size="14.00" fill="white">R3</text>
</g>
<!-- R5 -->
<g id="node2" class="node">
<title>R5</title>
<polygon fill="#006699" stroke="#006699" points="149.21,-223 72.21,-223 72.21,-150 149.21,-150 149.21,-223"/>
<text text-anchor="middle" x="110.71" y="-182.8" font-family="Helvetica,sans-Serif" font-size="14.00" fill="white">R5</text>
</g>
<!-- R3&#45;&#45;R5 -->
<g id="edge10" class="edge">
<title>R3&#45;&#45;R5</title>
<path fill="none" stroke="green" stroke-dasharray="5,2" d="M256,-64.82C217.07,-68.31 158.17,-79.89 124.71,-117 116.67,-125.92 112.75,-138.19 110.97,-149.88"/>
<text text-anchor="middle" x="174.71" y="-120.8" font-family="Courier,monospace" font-size="14.00" fill="white"> &#160;&#160;&#160;&#160;&#160;&#160;&#160;&#160;&#160;&#160;&#160;</text>
<text text-anchor="middle" x="85.97" y="-138.68" font-family="Courier,monospace" font-size="14.00" fill="white">Eth0/0</text>
<text text-anchor="middle" x="231" y="-53.62" font-family="Courier,monospace" font-size="14.00" fill="white">Eth0/2</text>
</g>
<!-- SW1 -->
<g id="node4" class="node">
<title>SW1</title>
<polygon fill="#006699" stroke="#006699" points="339.71,-223 249.71,-223 249.71,-150 339.71,-150 339.71,-223"/>
<text text-anchor="middle" x="294.71" y="-182.8" font-family="Helvetica,sans-Serif" font-size="14.00" fill="white">SW1</text>
</g>
<!-- R3&#45;&#45;SW1 -->
<g id="edge8" class="edge">
<title>R3&#45;&#45;SW1</title>
<path fill="none" stroke="green" stroke-dasharray="5,2" d="M256.18,-86.65C245.99,-94.85 236.29,-105.06 230.71,-117 222.99,-133.51 234.28,-148.69 249.42,-160.54"/>
<text text-anchor="middle" x="280.71" y="-120.8" font-family="Courier,monospace" font-size="14.00" fill="white"> &#160;&#160;&#160;&#160;&#160;&#160;&#160;&#160;&#160;&#160;&#160;</text>
<text text-anchor="middle" x="224.42" y="-149.34" font-family="Courier,monospace" font-size="14.00" fill="white">Eth0/3</text>
<text text-anchor="middle" x="231.18" y="-75.45" font-family="Courier,monospace" font-size="14.00" fill="white">Eth0/0</text>
</g>
<!-- R4 -->
<g id="node6" class="node">
<title>R4</title>
<polygon fill="#006699" stroke="#006699" points="518.21,-223 441.21,-223 441.21,-150 518.21,-150 518.21,-223"/>
<text text-anchor="middle" x="479.71" y="-182.8" font-family="Helvetica,sans-Serif" font-size="14.00" fill="white">R4</text>
</g>
<!-- R3&#45;&#45;R4 -->
<g id="edge9" class="edge">
<title>R3&#45;&#45;R4</title>
<path fill="none" stroke="green" stroke-dasharray="5,2" d="M333.5,-70.04C365.29,-77.06 409.9,-90.93 440.71,-117 451.05,-125.75 459.23,-137.98 465.37,-149.68"/>
<text text-anchor="middle" x="503.71" y="-120.8" font-family="Courier,monospace" font-size="14.00" fill="white"> &#160;&#160;&#160;&#160;&#160;&#160;&#160;&#160;&#160;&#160;&#160;</text>
<text text-anchor="middle" x="440.37" y="-138.48" font-family="Courier,monospace" font-size="14.00" fill="white">Eth0/0</text>
<text text-anchor="middle" x="358.5" y="-58.84" font-family="Courier,monospace" font-size="14.00" fill="white">Eth0/1</text>
</g>
<!-- R6 -->
<g id="node3" class="node">
<title>R6</title>
<polygon fill="#006699" stroke="#006699" points="87.21,-347 10.21,-347 10.21,-274 87.21,-274 87.21,-347"/>
<text text-anchor="middle" x="48.71" y="-306.8" font-family="Helvetica,sans-Serif" font-size="14.00" fill="white">R6</text>
</g>
<!-- SW1&#45;&#45;R3 -->
<g id="edge3" class="edge">
<title>SW1&#45;&#45;R3</title>
<path fill="none" stroke="green" stroke-dasharray="5,2" d="M329.15,-149.87C335.16,-139.66 338.45,-128.24 334.71,-117 332.66,-110.84 329.6,-104.81 326.06,-99.16"/>
<text text-anchor="middle" x="386.71" y="-120.8" font-family="Courier,monospace" font-size="14.00" fill="white"> &#160;&#160;&#160;&#160;&#160;&#160;&#160;&#160;&#160;&#160;&#160;</text>
<text text-anchor="middle" x="301.06" y="-102.96" font-family="Courier,monospace" font-size="14.00" fill="white">Eth0/0</text>
<text text-anchor="middle" x="304.15" y="-138.67" font-family="Courier,monospace" font-size="14.00" fill="white">Eth0/3</text>
</g>
<!-- SW1&#45;&#45;R6 -->
<g id="edge4" class="edge">
<title>SW1&#45;&#45;R6</title>
<path fill="none" stroke="green" stroke-dasharray="5,2" d="M249.52,-199.94C222.9,-207.09 188.5,-216.01 157.71,-223 117.08,-232.23 95.9,-212.29 65.71,-241 56.75,-249.53 52.21,-261.99 50,-273.95"/>
<text text-anchor="middle" x="115.71" y="-244.8" font-family="Courier,monospace" font-size="14.00" fill="white"> &#160;&#160;&#160;&#160;&#160;&#160;&#160;&#160;&#160;&#160;&#160;</text>
<text text-anchor="middle" x="25" y="-262.75" font-family="Courier,monospace" font-size="14.00" fill="white">Eth0/1</text>
<text text-anchor="middle" x="224.52" y="-188.74" font-family="Courier,monospace" font-size="14.00" fill="white">Eth0/5</text>
</g>
<!-- R2 -->
<g id="node5" class="node">
<title>R2</title>
<polygon fill="#006699" stroke="#006699" points="271.21,-347 194.21,-347 194.21,-274 271.21,-274 271.21,-347"/>
<text text-anchor="middle" x="232.71" y="-306.8" font-family="Helvetica,sans-Serif" font-size="14.00" fill="white">R2</text>
</g>
<!-- SW1&#45;&#45;R2 -->
<g id="edge2" class="edge">
<title>SW1&#45;&#45;R2</title>
<path fill="none" stroke="green" stroke-dasharray="5,2" d="M249.55,-194.69C222.3,-201.61 189.66,-215.06 172.71,-241 161.73,-257.81 176.41,-274.8 193.99,-287.65"/>
<text text-anchor="middle" x="222.71" y="-244.8" font-family="Courier,monospace" font-size="14.00" fill="white"> &#160;&#160;&#160;&#160;&#160;&#160;&#160;&#160;&#160;&#160;&#160;</text>
<text text-anchor="middle" x="168.99" y="-276.45" font-family="Courier,monospace" font-size="14.00" fill="white">Eth0/0</text>
<text text-anchor="middle" x="224.55" y="-198.49" font-family="Courier,monospace" font-size="14.00" fill="white">Eth0/2</text>
</g>
<!-- R1 -->
<g id="node8" class="node">
<title>R1</title>
<polygon fill="#006699" stroke="#006699" points="517.21,-347 440.21,-347 440.21,-274 517.21,-274 517.21,-347"/>
<text text-anchor="middle" x="478.71" y="-306.8" font-family="Helvetica,sans-Serif" font-size="14.00" fill="white">R1</text>
</g>
<!-- SW1&#45;&#45;R1 -->
<g id="edge1" class="edge">
<title>SW1&#45;&#45;R1</title>
<path fill="none" stroke="green" stroke-dasharray="5,2" d="M339.99,-213.72C354.14,-222.19 369.72,-231.77 383.71,-241 402.55,-253.43 422.92,-267.95 439.94,-280.43"/>
<text text-anchor="middle" x="454.71" y="-244.8" font-family="Courier,monospace" font-size="14.00" fill="white"> &#160;&#160;&#160;&#160;&#160;&#160;&#160;&#160;&#160;&#160;&#160;</text>
<text text-anchor="middle" x="414.94" y="-269.23" font-family="Courier,monospace" font-size="14.00" fill="white">Eth0/0</text>
<text text-anchor="middle" x="364.99" y="-202.52" font-family="Courier,monospace" font-size="14.00" fill="white">Eth0/1</text>
</g>
<!-- R2&#45;&#45;SW1 -->
<g id="edge6" class="edge">
<title>R2&#45;&#45;SW1</title>
<path fill="none" stroke="green" stroke-dasharray="5,2" d="M261.95,-273.72C265.89,-267.99 269.63,-261.98 272.71,-256 277.98,-245.79 282.31,-234.07 285.68,-223.25"/>
<text text-anchor="middle" x="329.71" y="-244.8" font-family="Courier,monospace" font-size="14.00" fill="white"> &#160;&#160;&#160;&#160;&#160;&#160;&#160;&#160;&#160;&#160;&#160;</text>
<text text-anchor="middle" x="260.68" y="-227.05" font-family="Courier,monospace" font-size="14.00" fill="white">Eth0/2</text>
<text text-anchor="middle" x="236.95" y="-262.52" font-family="Courier,monospace" font-size="14.00" fill="white">Eth0/0</text>
</g>
<!-- SW2 -->
<g id="node7" class="node">
<title>SW2</title>
<polygon fill="#006699" stroke="#006699" points="277.71,-471 187.71,-471 187.71,-398 277.71,-398 277.71,-471"/>
<text text-anchor="middle" x="232.71" y="-430.8" font-family="Helvetica,sans-Serif" font-size="14.00" fill="white">SW2</text>
</g>
<!-- R2&#45;&#45;SW2 -->
<g id="edge7" class="edge">
<title>R2&#45;&#45;SW2</title>
<path fill="none" stroke="green" stroke-dasharray="5,2" d="M232.71,-347.12C232.71,-363.01 232.71,-381.7 232.71,-397.63"/>
<text text-anchor="middle" x="282.71" y="-368.8" font-family="Courier,monospace" font-size="14.00" fill="white"> &#160;&#160;&#160;&#160;&#160;&#160;&#160;&#160;&#160;&#160;&#160;</text>
<text text-anchor="middle" x="203.71" y="-386.43" font-family="Courier,monospace" font-size="14.00" fill="white">Eth0/11</text>
<text text-anchor="middle" x="207.71" y="-350.92" font-family="Courier,monospace" font-size="14.00" fill="white">Eth0/1</text>
</g>
<!-- R1&#45;&#45;SW1 -->
<g id="edge5" class="edge">
<title>R1&#45;&#45;SW1</title>
<path fill="none" stroke="green" stroke-dasharray="5,2" d="M508.46,-273.78C514.2,-262.6 516.36,-250.67 508.71,-241 487.18,-213.77 466.41,-231.32 432.71,-223 401.61,-215.32 366.66,-206.32 339.72,-199.31"/>
<text text-anchor="middle" x="562.71" y="-244.8" font-family="Courier,monospace" font-size="14.00" fill="white"> &#160;&#160;&#160;&#160;&#160;&#160;&#160;&#160;&#160;&#160;&#160;</text>
<text text-anchor="middle" x="364.72" y="-188.11" font-family="Courier,monospace" font-size="14.00" fill="white">Eth0/1</text>
<text text-anchor="middle" x="483.46" y="-262.58" font-family="Courier,monospace" font-size="14.00" fill="white">Eth0/0</text>
</g>
</g>
</svg>
